<svg xmlns="http://www.w3.org/2000/svg" xmlns:xlink="http://www.w3.org/1999/xlink" width="256" zoomAndPan="magnify" viewBox="0 0 192 191.999996" height="256" preserveAspectRatio="xMidYMid meet" version="1.0"><defs><clipPath id="691b631616"><path d="M 5 101 L 74 101 L 74 173 L 5 173 Z M 5 101 " clip-rule="nonzero"/></clipPath><clipPath id="600cbff4ee"><path d="M 76.492188 138.949219 L 43.289062 172.152344 L 5.347656 134.207031 L 38.546875 101.007812 Z M 76.492188 138.949219 " clip-rule="nonzero"/></clipPath><clipPath id="de6bb3ff2c"><path d="M 43.101562 172.339844 L 125.3125 90.128906 L 39.414062 4.230469 L -42.796875 86.441406 Z M 43.101562 172.339844 " clip-rule="nonzero"/></clipPath><clipPath id="669cc76ec8"><path d="M 58 58 L 182 58 L 182 133 L 58 133 Z M 58 58 " clip-rule="nonzero"/></clipPath><clipPath id="69910ac3f5"><path d="M 58.890625 88.023438 L 98.941406 47.972656 L 182.730469 131.765625 L 142.679688 171.816406 Z M 58.890625 88.023438 " clip-rule="nonzero"/></clipPath><clipPath id="49d703d7c0"><path d="M 58.890625 88.023438 L 138.992188 7.921875 L 222.78125 91.714844 L 142.679688 171.816406 Z M 58.890625 88.023438 " clip-rule="nonzero"/></clipPath><clipPath id="82aa7ca57c"><path d="M 8 60 L 83 60 L 83 184 L 8 184 Z M 8 60 " clip-rule="nonzero"/></clipPath><clipPath id="a9009419ed"><path d="M 133.605469 103.464844 L 53.503906 183.566406 L -30.289062 99.777344 L 49.8125 19.671875 Z M 133.605469 103.464844 " clip-rule="nonzero"/></clipPath><clipPath id="ff4a378360"><path d="M 133.605469 103.464844 L 53.503906 183.566406 L -30.289062 99.777344 L 49.8125 19.671875 Z M 133.605469 103.464844 " clip-rule="nonzero"/></clipPath><clipPath id="3efa296d33"><path d="M 10 58 L 134 58 L 134 133 L 10 133 Z M 10 58 " clip-rule="nonzero"/></clipPath><clipPath id="87fa95f2ea"><path d="M 133.605469 103.464844 L 53.503906 183.566406 L -30.289062 99.777344 L 49.8125 19.671875 Z M 133.605469 103.464844 " clip-rule="nonzero"/></clipPath><clipPath id="40a6cc799b"><path d="M 133.605469 103.464844 L 53.503906 183.566406 L -30.289062 99.777344 L 49.8125 19.671875 Z M 133.605469 103.464844 " clip-rule="nonzero"/></clipPath><clipPath id="f48c1273d4"><path d="M 97 61 L 182 61 L 182 133 L 97 133 Z M 97 61 " clip-rule="nonzero"/></clipPath><clipPath id="9b864b2426"><path d="M 97.101562 76.933594 L 112.382812 61.652344 L 182.472656 131.738281 L 167.191406 147.023438 Z M 97.101562 76.933594 " clip-rule="nonzero"/></clipPath><clipPath id="1c533ddc6a"><path d="M 58.886719 88.027344 L 138.988281 7.925781 L 222.78125 91.714844 L 142.675781 171.816406 Z M 58.886719 88.027344 " clip-rule="nonzero"/></clipPath><clipPath id="87bb56913f"><path d="M 109 8 L 184 8 L 184 132 L 109 132 Z M 109 8 " clip-rule="nonzero"/></clipPath><clipPath id="dc1a0c894f"><path d="M 98.683594 48.230469 L 138.207031 8.707031 L 222 92.496094 L 182.472656 132.019531 Z M 98.683594 48.230469 " clip-rule="nonzero"/></clipPath><clipPath id="f7e1c627b0"><path d="M 58.390625 88.519531 L 138.492188 8.417969 L 222.285156 92.210938 L 142.183594 172.3125 Z M 58.390625 88.519531 " clip-rule="nonzero"/></clipPath><clipPath id="6f60b49c0e"><path d="M 118 19 L 187 19 L 187 91 L 118 91 Z M 118 19 " clip-rule="nonzero"/></clipPath><clipPath id="9e29c0188e"><path d="M 115.507812 53.046875 L 148.707031 19.847656 L 186.648438 57.789062 L 153.449219 90.992188 Z M 115.507812 53.046875 " clip-rule="nonzero"/></clipPath><clipPath id="2814753e91"><path d="M 148.898438 19.660156 L 66.6875 101.867188 L 152.585938 187.769531 L 234.796875 105.558594 Z M 148.898438 19.660156 " clip-rule="nonzero"/></clipPath></defs><g clip-path="url(#691b631616)"><g clip-path="url(#600cbff4ee)"><g clip-path="url(#de6bb3ff2c)"><path fill="#08102b" d="M 43.054688 172.292969 L 55.59375 122.171875 L 8.90625 75.484375 L -2.738281 46.453125 L 73.230469 122.421875 Z M 43.054688 172.292969 " fill-opacity="1" fill-rule="evenodd"/></g></g></g><g clip-path="url(#669cc76ec8)"><g clip-path="url(#69910ac3f5)"><g clip-path="url(#49d703d7c0)"><path fill="#08102b" d="M 58.929688 88.0625 L 107.789062 75.871094 L 153.335938 121.417969 L 181.648438 132.789062 L 107.535156 58.675781 Z M 58.929688 88.0625 " fill-opacity="1" fill-rule="evenodd"/></g></g></g><g clip-path="url(#82aa7ca57c)"><g clip-path="url(#a9009419ed)"><g clip-path="url(#ff4a378360)"><path fill="#08102b" d="M 53.460938 183.527344 L 65.65625 134.667969 L 20.109375 89.121094 L 8.734375 60.808594 L 82.847656 134.921875 Z M 53.460938 183.527344 " fill-opacity="1" fill-rule="evenodd"/></g></g></g><g clip-path="url(#3efa296d33)"><g clip-path="url(#87fa95f2ea)"><g clip-path="url(#40a6cc799b)"><path fill="#366c50" d="M 133.566406 103.425781 L 84.707031 115.617188 L 39.160156 70.070312 L 10.84375 58.699219 L 84.957031 132.8125 Z M 133.566406 103.425781 " fill-opacity="1" fill-rule="evenodd"/></g></g></g><g clip-path="url(#f48c1273d4)"><g clip-path="url(#9b864b2426)"><g clip-path="url(#1c533ddc6a)"><path fill="#08102b" d="M 58.925781 88.066406 L 107.785156 75.875 L 153.332031 121.421875 L 181.644531 132.792969 L 107.53125 58.675781 Z M 58.925781 88.066406 " fill-opacity="1" fill-rule="evenodd"/></g></g></g><g clip-path="url(#87bb56913f)"><g clip-path="url(#dc1a0c894f)"><g clip-path="url(#f7e1c627b0)"><path fill="#366c50" d="M 138.535156 8.457031 L 126.339844 57.316406 L 171.886719 102.863281 L 183.261719 131.175781 L 109.148438 57.0625 Z M 138.535156 8.457031 " fill-opacity="1" fill-rule="evenodd"/></g></g></g><g clip-path="url(#6f60b49c0e)"><g clip-path="url(#9e29c0188e)"><g clip-path="url(#2814753e91)"><path fill="#366c50" d="M 148.941406 19.703125 L 136.40625 69.824219 L 183.09375 116.511719 L 194.738281 145.546875 L 118.765625 69.578125 Z M 148.941406 19.703125 " fill-opacity="1" fill-rule="evenodd"/></g></g></g></svg>