<svg xmlns="http://www.w3.org/2000/svg" xmlns:xlink="http://www.w3.org/1999/xlink" width="500" zoomAndPan="magnify" viewBox="0 0 375 374.999991" height="500" preserveAspectRatio="xMidYMid meet" version="1.0"><defs><g/><clipPath id="b9317017d5"><path d="M 96 161 L 165 161 L 165 234 L 96 234 Z M 96 161 " clip-rule="nonzero"/></clipPath><clipPath id="e7f69fda42"><path d="M 167.867188 199.632812 L 134.457031 233.042969 L 96.273438 194.859375 L 129.683594 161.449219 Z M 167.867188 199.632812 " clip-rule="nonzero"/></clipPath><clipPath id="a756c05fac"><path d="M 134.265625 233.234375 L 216.996094 150.503906 L 130.554688 64.058594 L 47.824219 146.789062 Z M 134.265625 233.234375 " clip-rule="nonzero"/></clipPath><clipPath id="10cf00b926"><path d="M 150 118 L 274 118 L 274 194 L 150 194 Z M 150 118 " clip-rule="nonzero"/></clipPath><clipPath id="605e9e11ff"><path d="M 150.15625 148.382812 L 190.460938 108.078125 L 274.78125 192.402344 L 234.476562 232.707031 Z M 150.15625 148.382812 " clip-rule="nonzero"/></clipPath><clipPath id="d2beaef700"><path d="M 150.15625 148.382812 L 230.765625 67.773438 L 315.085938 152.097656 L 234.476562 232.707031 Z M 150.15625 148.382812 " clip-rule="nonzero"/></clipPath><clipPath id="e669727f80"><path d="M 99 120 L 175 120 L 175 245 L 99 245 Z M 99 120 " clip-rule="nonzero"/></clipPath><clipPath id="31212fb3a1"><path d="M 225.34375 163.921875 L 144.734375 244.53125 L 60.410156 160.210938 L 141.019531 79.601562 Z M 225.34375 163.921875 " clip-rule="nonzero"/></clipPath><clipPath id="ffde568c09"><path d="M 225.34375 163.921875 L 144.734375 244.53125 L 60.410156 160.210938 L 141.019531 79.601562 Z M 225.34375 163.921875 " clip-rule="nonzero"/></clipPath><clipPath id="49426bc09e"><path d="M 101 118 L 226 118 L 226 194 L 101 194 Z M 101 118 " clip-rule="nonzero"/></clipPath><clipPath id="fd478cb40f"><path d="M 225.34375 163.921875 L 144.734375 244.53125 L 60.410156 160.210938 L 141.019531 79.601562 Z M 225.34375 163.921875 " clip-rule="nonzero"/></clipPath><clipPath id="d6c2f3ba73"><path d="M 225.34375 163.921875 L 144.734375 244.53125 L 60.410156 160.210938 L 141.019531 79.601562 Z M 225.34375 163.921875 " clip-rule="nonzero"/></clipPath><clipPath id="8c2c705ddd"><path d="M 188 121 L 274 121 L 274 194 L 188 194 Z M 188 121 " clip-rule="nonzero"/></clipPath><clipPath id="c0a10e200e"><path d="M 188.609375 137.222656 L 203.988281 121.84375 L 274.523438 192.378906 L 259.144531 207.757812 Z M 188.609375 137.222656 " clip-rule="nonzero"/></clipPath><clipPath id="1b3d1c83ef"><path d="M 150.152344 148.386719 L 230.761719 67.777344 L 315.082031 152.097656 L 234.472656 232.710938 Z M 150.152344 148.386719 " clip-rule="nonzero"/></clipPath><clipPath id="72a062217e"><path d="M 200 68 L 276 68 L 276 192 L 200 192 Z M 200 68 " clip-rule="nonzero"/></clipPath><clipPath id="cbbefa202e"><path d="M 190.199219 108.335938 L 229.976562 68.5625 L 314.296875 152.886719 L 274.523438 192.660156 Z M 190.199219 108.335938 " clip-rule="nonzero"/></clipPath><clipPath id="4200695866"><path d="M 149.652344 148.882812 L 230.261719 68.273438 L 314.585938 152.597656 L 233.976562 233.207031 Z M 149.652344 148.882812 " clip-rule="nonzero"/></clipPath><clipPath id="9b6dda9d21"><path d="M 210 79 L 279 79 L 279 152 L 210 152 Z M 210 79 " clip-rule="nonzero"/></clipPath><clipPath id="254784f3f7"><path d="M 207.128906 113.1875 L 240.542969 79.777344 L 278.726562 117.960938 L 245.3125 151.371094 Z M 207.128906 113.1875 " clip-rule="nonzero"/></clipPath><clipPath id="4b502b03d6"><path d="M 240.730469 79.585938 L 158 162.316406 L 244.445312 248.761719 L 327.175781 166.027344 Z M 240.730469 79.585938 " clip-rule="nonzero"/></clipPath></defs><rect x="-37.5" width="450" fill="#ffffff" y="-37.499999" height="449.999989" fill-opacity="1"/><rect x="-37.5" width="450" fill="#ffffff" y="-37.499999" height="449.999989" fill-opacity="1"/><rect x="-37.5" width="450" fill="#ffffff" y="-37.499999" height="449.999989" fill-opacity="1"/><g clip-path="url(#b9317017d5)"><g clip-path="url(#e7f69fda42)"><g clip-path="url(#a756c05fac)"><path fill="#08102b" d="M 134.21875 233.1875 L 146.835938 182.75 L 99.851562 135.765625 L 88.132812 106.546875 L 164.585938 183 Z M 134.21875 233.1875 " fill-opacity="1" fill-rule="evenodd"/></g></g></g><g clip-path="url(#10cf00b926)"><g clip-path="url(#605e9e11ff)"><g clip-path="url(#d2beaef700)"><path fill="#08102b" d="M 150.195312 148.425781 L 199.363281 136.152344 L 245.199219 181.988281 L 273.691406 193.433594 L 199.109375 118.847656 Z M 150.195312 148.425781 " fill-opacity="1" fill-rule="evenodd"/></g></g></g><g clip-path="url(#e669727f80)"><g clip-path="url(#31212fb3a1)"><g clip-path="url(#ffde568c09)"><path fill="#08102b" d="M 144.691406 244.496094 L 156.964844 195.324219 L 111.128906 149.488281 L 99.683594 120.996094 L 174.265625 195.582031 Z M 144.691406 244.496094 " fill-opacity="1" fill-rule="evenodd"/></g></g></g><g clip-path="url(#49426bc09e)"><g clip-path="url(#fd478cb40f)"><g clip-path="url(#d6c2f3ba73)"><path fill="#366c50" d="M 225.304688 163.882812 L 176.132812 176.152344 L 130.300781 130.316406 L 101.804688 118.875 L 176.390625 193.457031 Z M 225.304688 163.882812 " fill-opacity="1" fill-rule="evenodd"/></g></g></g><g clip-path="url(#8c2c705ddd)"><g clip-path="url(#c0a10e200e)"><g clip-path="url(#1b3d1c83ef)"><path fill="#08102b" d="M 150.191406 148.425781 L 199.359375 136.15625 L 245.195312 181.992188 L 273.6875 193.433594 L 199.105469 118.851562 Z M 150.191406 148.425781 " fill-opacity="1" fill-rule="evenodd"/></g></g></g><g clip-path="url(#72a062217e)"><g clip-path="url(#cbbefa202e)"><g clip-path="url(#4200695866)"><path fill="#366c50" d="M 230.304688 68.3125 L 218.035156 117.484375 L 263.867188 163.320312 L 275.3125 191.808594 L 200.730469 117.226562 Z M 230.304688 68.3125 " fill-opacity="1" fill-rule="evenodd"/></g></g></g><g clip-path="url(#9b6dda9d21)"><g clip-path="url(#254784f3f7)"><g clip-path="url(#4b502b03d6)"><path fill="#366c50" d="M 240.777344 79.628906 L 228.160156 130.070312 L 275.144531 177.054688 L 286.863281 206.273438 L 210.410156 129.820312 Z M 240.777344 79.628906 " fill-opacity="1" fill-rule="evenodd"/></g></g></g><g fill="#000000" fill-opacity="1"><g transform="translate(60.556205, 291.932626)"><g><path d="M 13.082031 -32.386719 L 13.082031 0 L 14.808594 0 L 14.808594 -32.386719 L 26.980469 -32.386719 L 26.980469 -34.066406 L 0.910156 -34.066406 L 0.910156 -32.386719 Z M 13.082031 -32.386719 "/></g></g></g><g fill="#000000" fill-opacity="1"><g transform="translate(88.444353, 291.932626)"><g><path d="M 16.671875 -25.710938 C 13.265625 -25.710938 10.21875 -24.484375 7.585938 -21.984375 C 4.953125 -19.53125 3.632812 -16.398438 3.632812 -12.628906 L 3.632812 0 L 5.222656 0 L 5.222656 -12.628906 C 5.222656 -15.761719 6.359375 -18.488281 8.585938 -20.714844 C 10.8125 -22.984375 13.535156 -24.121094 16.671875 -24.121094 Z M 16.671875 -25.710938 "/></g></g></g><g fill="#000000" fill-opacity="1"><g transform="translate(105.567871, 291.932626)"><g><path d="M 6.269531 -35.25 L 4.542969 -35.25 L 4.542969 -29.570312 L 6.269531 -29.570312 Z M 6.269531 -25.257812 L 4.542969 -25.257812 L 4.542969 0 L 6.269531 0 Z M 6.269531 -25.257812 "/></g></g></g><g fill="#000000" fill-opacity="1"><g transform="translate(116.377928, 291.932626)"><g><path d="M 24.210938 -4.953125 C 21.984375 -2.40625 19.125 -1.136719 15.714844 -1.136719 C 12.582031 -1.136719 9.855469 -2.269531 7.632812 -4.496094 C 5.40625 -6.722656 4.316406 -9.402344 4.316406 -12.535156 C 4.316406 -15.625 5.449219 -18.304688 7.675781 -20.53125 C 9.902344 -22.804688 12.582031 -23.9375 15.714844 -23.9375 C 18.761719 -23.9375 21.621094 -22.667969 24.257812 -20.078125 L 25.4375 -21.121094 C 23.210938 -23.894531 19.394531 -25.527344 15.714844 -25.527344 C 12.128906 -25.527344 9.085938 -24.257812 6.542969 -21.710938 C 3.996094 -19.167969 2.726562 -16.125 2.726562 -12.535156 C 2.726562 -8.992188 3.996094 -5.949219 6.542969 -3.363281 C 9.128906 -0.816406 12.171875 0.453125 15.714844 0.453125 C 19.304688 0.453125 22.53125 -1 25.390625 -3.859375 Z M 24.210938 -4.953125 "/></g></g></g><g fill="#000000" fill-opacity="1"><g transform="translate(144.538611, 291.932626)"><g><path d="M 30.296875 0 C 30.296875 -3.132812 29.433594 -6.085938 27.664062 -8.949219 C 25.890625 -11.808594 23.667969 -14.035156 20.941406 -15.714844 L 31.296875 -25.257812 L 28.84375 -25.257812 L 19.488281 -16.488281 C 16.808594 -17.804688 13.992188 -18.488281 10.945312 -18.488281 C 9.222656 -18.488281 7.449219 -18.261719 5.679688 -17.761719 L 5.679688 -35.25 L 4.089844 -35.25 L 4.089844 0 L 5.679688 0 L 5.679688 -16.125 C 7.402344 -16.625 9.175781 -16.898438 10.945312 -16.898438 C 15.671875 -16.898438 19.757812 -15.261719 23.210938 -11.945312 C 26.664062 -8.628906 28.480469 -4.679688 28.664062 0 Z M 30.296875 0 "/></g></g></g><g fill="#000000" fill-opacity="1"><g transform="translate(177.650108, 291.932626)"><g><path d="M 28.800781 -12.628906 C 28.800781 -16.171875 27.527344 -19.214844 24.9375 -21.804688 C 22.394531 -24.394531 19.351562 -25.664062 15.761719 -25.664062 C 12.171875 -25.664062 9.085938 -24.394531 6.542969 -21.804688 C 3.996094 -19.261719 2.726562 -16.214844 2.726562 -12.628906 C 2.726562 -9.039062 3.996094 -5.996094 6.542969 -3.40625 C 9.128906 -0.863281 12.171875 0.410156 15.761719 0.410156 C 19.351562 0.410156 22.394531 -0.863281 24.9375 -3.40625 C 27.527344 -5.996094 28.800781 -9.039062 28.800781 -12.628906 Z M 27.210938 -12.628906 C 27.210938 -9.492188 26.074219 -6.769531 23.847656 -4.542969 C 21.621094 -2.316406 18.898438 -1.179688 15.761719 -1.179688 C 12.628906 -1.179688 9.902344 -2.316406 7.675781 -4.542969 C 5.449219 -6.769531 4.316406 -9.492188 4.316406 -12.628906 C 4.316406 -15.714844 5.449219 -18.398438 7.675781 -20.667969 C 9.949219 -22.9375 12.628906 -24.074219 15.761719 -24.074219 C 18.898438 -24.074219 21.578125 -22.9375 23.800781 -20.667969 C 26.074219 -18.398438 27.210938 -15.714844 27.210938 -12.628906 Z M 27.210938 -12.628906 "/></g></g></g><g fill="#000000" fill-opacity="1"><g transform="translate(209.171882, 291.932626)"><g><path d="M 16.671875 -25.710938 C 13.265625 -25.710938 10.21875 -24.484375 7.585938 -21.984375 C 4.953125 -19.53125 3.632812 -16.398438 3.632812 -12.628906 L 3.632812 0 L 5.222656 0 L 5.222656 -12.628906 C 5.222656 -15.761719 6.359375 -18.488281 8.585938 -20.714844 C 10.8125 -22.984375 13.535156 -24.121094 16.671875 -24.121094 Z M 16.671875 -25.710938 "/></g></g></g><g fill="#000000" fill-opacity="1"><g transform="translate(226.2954, 291.932626)"><g><path d="M 6.269531 -35.25 L 4.542969 -35.25 L 4.542969 -29.570312 L 6.269531 -29.570312 Z M 6.269531 -25.257812 L 4.542969 -25.257812 L 4.542969 0 L 6.269531 0 Z M 6.269531 -25.257812 "/></g></g></g><g fill="#000000" fill-opacity="1"><g transform="translate(237.105458, 291.932626)"><g><path d="M 28.890625 -12.628906 C 28.890625 -16.214844 27.617188 -19.304688 25.027344 -21.847656 C 22.484375 -24.394531 19.394531 -25.664062 15.808594 -25.664062 C 12.355469 -25.664062 9.3125 -24.4375 6.675781 -21.941406 C 4.042969 -19.488281 2.726562 -16.398438 2.726562 -12.628906 C 2.726562 -9.128906 3.953125 -6.085938 6.40625 -3.453125 C 8.902344 -0.863281 12.039062 0.453125 15.808594 0.453125 C 17.488281 0.453125 19.125 0.136719 20.804688 -0.546875 L 20.167969 -2 C 18.761719 -1.40625 17.304688 -1.136719 15.808594 -1.136719 C 12.628906 -1.136719 9.902344 -2.269531 7.675781 -4.496094 C 5.449219 -6.722656 4.316406 -9.449219 4.316406 -12.628906 C 4.316406 -15.625 5.40625 -18.261719 7.585938 -20.578125 C 9.765625 -22.894531 12.492188 -24.074219 15.808594 -24.074219 C 18.761719 -24.074219 21.441406 -22.984375 23.800781 -20.757812 C 26.164062 -18.578125 27.34375 -15.851562 27.34375 -12.628906 L 27.34375 -2.542969 C 27.34375 0.589844 26.210938 3.316406 23.894531 5.585938 C 21.578125 7.902344 18.851562 9.039062 15.714844 9.039062 C 12.582031 9.039062 9.902344 7.902344 7.585938 5.585938 L 6.496094 6.722656 C 9.085938 9.3125 12.171875 10.628906 15.714844 10.628906 C 19.304688 10.628906 22.394531 9.355469 24.984375 6.8125 C 27.574219 4.316406 28.890625 1.179688 28.890625 -2.542969 Z M 28.890625 -12.628906 "/></g></g></g><g fill="#000000" fill-opacity="1"><g transform="translate(270.080703, 291.932626)"><g><path d="M 6.269531 -35.25 L 4.542969 -35.25 L 4.542969 -29.570312 L 6.269531 -29.570312 Z M 6.269531 -25.257812 L 4.542969 -25.257812 L 4.542969 0 L 6.269531 0 Z M 6.269531 -25.257812 "/></g></g></g><g fill="#000000" fill-opacity="1"><g transform="translate(280.89076, 291.932626)"><g><path d="M 29.933594 -12.671875 C 29.933594 -16.261719 28.617188 -19.304688 26.027344 -21.847656 C 23.4375 -24.4375 20.351562 -25.710938 16.761719 -25.710938 C 13.171875 -25.710938 10.085938 -24.4375 7.496094 -21.847656 C 4.90625 -19.304688 3.632812 -16.261719 3.632812 -12.671875 L 3.632812 0 L 5.316406 0 L 5.316406 -12.671875 C 5.316406 -15.808594 6.449219 -18.488281 8.722656 -20.714844 C 10.992188 -22.984375 13.671875 -24.121094 16.761719 -24.121094 C 19.894531 -24.121094 22.574219 -22.984375 24.847656 -20.714844 C 27.117188 -18.488281 28.253906 -15.808594 28.253906 -12.671875 L 28.253906 0 L 29.933594 0 Z M 29.933594 -12.671875 "/></g></g></g></svg>