<svg xmlns="http://www.w3.org/2000/svg" xmlns:xlink="http://www.w3.org/1999/xlink" width="500" zoomAndPan="magnify" viewBox="0 0 375 374.999991" height="500" preserveAspectRatio="xMidYMid meet" version="1.0"><defs><clipPath id="c3d27ee4ff"><path d="M 209 0 L 360 0 L 360 254 L 209 254 Z M 209 0 " clip-rule="nonzero"/></clipPath><clipPath id="1a49012de4"><path d="M 104.976562 161.355469 L 271.441406 0.265625 L 440.546875 175.011719 L 274.082031 336.101562 Z M 104.976562 161.355469 " clip-rule="nonzero"/></clipPath><clipPath id="9039511ee9"><path d="M 104.976562 161.355469 L 271.441406 0.265625 L 440.546875 175.011719 L 274.082031 336.101562 Z M 104.976562 161.355469 " clip-rule="nonzero"/></clipPath><clipPath id="5662b88f5b"><path d="M 105 103 L 356 103 L 356 258 L 105 258 Z M 105 103 " clip-rule="nonzero"/></clipPath><clipPath id="a7f05548e1"><path d="M 104.976562 161.355469 L 271.441406 0.265625 L 440.546875 175.011719 L 274.082031 336.101562 Z M 104.976562 161.355469 " clip-rule="nonzero"/></clipPath><clipPath id="dc22944e59"><path d="M 104.976562 161.355469 L 271.441406 0.265625 L 440.546875 175.011719 L 274.082031 336.101562 Z M 104.976562 161.355469 " clip-rule="nonzero"/></clipPath><clipPath id="0ee3185b08"><path d="M 226 17 L 328 17 L 328 137 L 226 137 Z M 226 17 " clip-rule="nonzero"/></clipPath><clipPath id="d6d90afe89"><path d="M 206.902344 96.875 L 288.890625 17.53125 L 327.359375 57.285156 L 245.371094 136.628906 Z M 206.902344 96.875 " clip-rule="nonzero"/></clipPath><clipPath id="d5d20feda2"><path d="M 122.042969 178.992188 L 288.507812 17.902344 L 457.613281 192.648438 L 291.148438 353.738281 Z M 122.042969 178.992188 " clip-rule="nonzero"/></clipPath><clipPath id="981f07113b"><path d="M 14 123 L 167 123 L 167 375 L 14 375 Z M 14 123 " clip-rule="nonzero"/></clipPath><clipPath id="c6ef63ed82"><path d="M 270.199219 210.804688 L 106.519531 374.726562 L -65.554688 202.90625 L 98.121094 38.984375 Z M 270.199219 210.804688 " clip-rule="nonzero"/></clipPath><clipPath id="5041181f79"><path d="M 270.199219 210.804688 L 106.519531 374.726562 L -65.554688 202.90625 L 98.121094 38.984375 Z M 270.199219 210.804688 " clip-rule="nonzero"/></clipPath><clipPath id="0988890a2b"><path d="M 18 118 L 271 118 L 271 271 L 18 271 Z M 18 118 " clip-rule="nonzero"/></clipPath><clipPath id="9fe14e2ba1"><path d="M 270.199219 210.804688 L 106.519531 374.726562 L -65.554688 202.90625 L 98.121094 38.984375 Z M 270.199219 210.804688 " clip-rule="nonzero"/></clipPath><clipPath id="752cef2f40"><path d="M 270.199219 210.804688 L 106.519531 374.726562 L -65.554688 202.90625 L 98.121094 38.984375 Z M 270.199219 210.804688 " clip-rule="nonzero"/></clipPath><clipPath id="284e0a6b4b"><path d="M 49 237 L 150 237 L 150 358 L 49 358 Z M 49 237 " clip-rule="nonzero"/></clipPath><clipPath id="7d9c594a00"><path d="M 169.386719 277.027344 L 88.769531 357.765625 L 49.625 318.675781 L 130.242188 237.941406 Z M 169.386719 277.027344 " clip-rule="nonzero"/></clipPath><clipPath id="e4e2ecf2d1"><path d="M 252.820312 193.46875 L 89.144531 357.386719 L -82.933594 185.566406 L 80.746094 21.648438 Z M 252.820312 193.46875 " clip-rule="nonzero"/></clipPath></defs><g clip-path="url(#c3d27ee4ff)"><g clip-path="url(#1a49012de4)"><g clip-path="url(#9039511ee9)"><path fill="#366c50" d="M 271.535156 0.351562 L 245.085938 99.976562 L 337 194.953125 L 359.441406 253.363281 L 209.878906 98.8125 Z M 271.535156 0.351562 " fill-opacity="1" fill-rule="evenodd"/></g></g></g><g clip-path="url(#5662b88f5b)"><g clip-path="url(#a7f05548e1)"><g clip-path="url(#dc22944e59)"><path fill="#08102b" d="M 105.0625 161.445312 L 205.496094 138.285156 L 297.410156 233.265625 L 355.058594 257.605469 L 205.496094 103.054688 Z M 105.0625 161.445312 " fill-opacity="1" fill-rule="evenodd"/></g></g></g><g clip-path="url(#0ee3185b08)"><g clip-path="url(#d6d90afe89)"><g clip-path="url(#d5d20feda2)"><path fill="#366c50" d="M 288.601562 17.988281 L 262.15625 117.613281 L 354.066406 212.589844 L 376.507812 271 L 226.949219 116.453125 Z M 288.601562 17.988281 " fill-opacity="1" fill-rule="evenodd"/></g></g></g><g clip-path="url(#981f07113b)"><g clip-path="url(#c6ef63ed82)"><g clip-path="url(#5041181f79)"><path fill="#08102b" d="M 106.425781 374.640625 L 131.160156 274.578125 L 37.632812 181.191406 L 14.195312 123.171875 L 166.382812 275.136719 Z M 106.425781 374.640625 " fill-opacity="1" fill-rule="evenodd"/></g></g></g><g clip-path="url(#0988890a2b)"><g clip-path="url(#9fe14e2ba1)"><g clip-path="url(#752cef2f40)"><path fill="#366c50" d="M 270.109375 210.714844 L 170.085938 235.59375 L 76.558594 142.207031 L 18.503906 118.855469 L 170.691406 270.820312 Z M 270.109375 210.714844 " fill-opacity="1" fill-rule="evenodd"/></g></g></g><g clip-path="url(#284e0a6b4b)"><g clip-path="url(#7d9c594a00)"><g clip-path="url(#e4e2ecf2d1)"><path fill="#08102b" d="M 89.050781 357.304688 L 113.785156 257.242188 L 20.257812 163.851562 L -3.183594 105.835938 L 149.003906 257.796875 Z M 89.050781 357.304688 " fill-opacity="1" fill-rule="evenodd"/></g></g></g></svg>