<?xml version="1.0" encoding="UTF-8" ?>
<!DOCTYPE svg PUBLIC "-//W3C//DTD SVG 1.1//EN" "http://www.w3.org/Graphics/SVG/1.1/DTD/svg11.dtd">
<svg width="500pt" height="500pt" viewBox="0 0 500 500" version="1.1" xmlns="http://www.w3.org/2000/svg">
<g id="#ffffffff">
<path fill="#ffffff" opacity="1.00" d=" M 0.00 0.00 L 500.00 0.00 L 500.00 500.00 L 0.00 500.00 L 0.00 0.00 M 279.87 131.88 C 295.89 147.96 310.88 165.04 327.02 181.02 C 342.62 196.07 357.13 212.19 372.45 227.51 C 379.82 234.83 386.71 242.62 394.05 249.98 C 409.04 264.99 423.39 280.61 438.41 295.59 C 451.07 309.30 464.49 322.27 477.25 335.87 C 477.67 336.61 478.11 337.35 478.55 338.09 C 478.51 336.95 478.36 335.84 478.09 334.75 C 468.70 310.39 459.34 286.02 449.98 261.65 C 449.34 259.89 447.93 258.60 446.69 257.28 C 416.99 226.66 387.39 195.96 357.68 165.36 C 354.87 162.39 351.90 159.54 349.56 156.16 C 356.04 133.18 361.84 110.00 368.09 86.95 C 373.51 66.02 379.42 45.19 384.57 24.20 C 374.93 39.98 364.97 55.57 355.20 71.28 C 348.32 82.54 340.91 93.51 334.38 104.97 C 342.59 73.29 351.18 41.70 359.48 10.03 C 360.34 6.99 361.26 3.95 361.72 0.81 C 334.62 44.61 306.98 88.08 279.87 131.88 M 140.70 214.87 C 157.27 211.64 173.63 207.32 190.13 203.73 C 218.20 197.33 246.21 190.66 274.31 184.42 C 297.68 209.13 321.65 233.27 345.13 257.87 C 362.60 275.59 379.59 293.79 397.20 311.37 C 422.76 321.83 448.01 333.08 473.65 343.36 C 469.26 339.41 465.19 335.12 461.24 330.75 C 460.68 330.25 460.11 329.74 459.55 329.26 L 459.45 328.79 C 459.15 328.47 458.54 327.84 458.24 327.52 L 457.52 327.50 L 457.45 326.75 C 448.79 317.61 439.60 308.97 431.19 299.60 L 430.44 299.53 L 430.51 298.48 L 429.77 298.48 C 429.46 298.16 428.85 297.53 428.55 297.21 L 428.56 296.47 L 427.52 296.51 L 427.46 295.74 C 418.78 286.62 409.61 277.96 401.19 268.62 L 400.45 268.51 L 400.50 267.48 L 399.77 267.48 C 399.46 267.16 398.85 266.53 398.55 266.21 L 398.55 265.47 L 397.53 265.51 L 397.45 264.74 C 388.79 255.62 379.62 246.97 371.19 237.62 L 370.45 237.51 L 370.50 236.48 L 369.45 236.52 L 369.47 235.78 C 369.16 235.47 368.55 234.84 368.24 234.52 L 367.51 234.51 L 367.56 233.47 L 366.78 233.38 C 358.74 224.34 349.89 216.04 341.54 207.27 L 341.47 206.51 L 340.44 206.54 L 340.51 205.48 L 339.77 205.47 C 339.47 205.16 338.85 204.53 338.55 204.21 L 338.56 203.47 L 337.53 203.50 L 337.46 202.73 C 328.85 193.86 320.11 185.14 311.55 176.23 L 311.48 175.52 L 310.44 175.53 L 310.45 174.79 C 310.14 174.48 309.53 173.85 309.22 173.53 L 308.49 173.53 L 308.56 172.49 L 307.80 172.40 C 299.33 162.76 289.67 154.24 281.19 144.61 L 280.45 144.51 L 280.50 143.48 L 279.77 143.47 C 279.46 143.16 278.85 142.53 278.54 142.21 L 278.56 141.46 L 277.51 141.51 L 277.46 140.72 C 276.33 139.58 275.18 138.45 274.07 137.31 C 229.66 163.25 185.17 189.05 140.70 214.87 M 24.80 159.11 C 37.54 171.03 49.56 183.72 62.01 195.94 C 116.99 250.99 172.21 305.79 227.07 360.95 C 227.58 360.74 228.59 360.34 229.09 360.14 C 272.70 333.98 316.08 307.39 359.75 281.33 C 356.71 281.67 353.78 282.52 350.83 283.28 C 310.52 293.32 270.20 303.32 229.89 313.35 C 228.71 313.57 227.53 313.75 226.34 313.91 C 217.54 304.65 208.29 295.81 199.31 286.72 C 168.28 255.74 137.23 224.79 106.20 193.81 C 104.49 192.18 103.00 190.22 100.89 189.10 C 76.66 179.40 52.46 169.64 28.25 159.90 C 27.12 159.55 25.97 159.29 24.80 159.11 M 19.57 163.83 C 19.48 166.23 20.52 168.40 21.46 170.55 C 30.73 193.29 39.88 216.08 49.06 238.86 C 49.55 239.98 49.97 241.18 50.83 242.09 C 83.38 274.58 115.92 307.07 148.46 339.57 C 149.60 340.95 151.21 342.22 151.48 344.10 C 144.90 370.35 138.53 396.65 131.97 422.91 C 127.77 440.69 122.87 458.33 119.05 476.20 C 128.96 459.05 139.47 442.24 149.58 425.20 C 155.54 415.00 162.17 405.15 167.61 394.67 C 162.59 417.05 156.67 439.25 151.32 461.57 C 148.34 474.14 144.80 486.60 142.22 499.26 C 143.69 496.66 145.18 494.08 146.73 491.53 C 171.81 450.00 196.72 408.38 221.89 366.91 C 215.50 360.38 208.99 353.97 202.52 347.50 C 191.77 335.93 180.50 324.83 169.00 314.01 C 120.33 265.31 71.60 216.67 22.91 167.99 C 22.22 167.35 21.51 166.73 20.77 166.13 C 20.38 165.36 19.97 164.59 19.57 163.83 M 262.18 197.05 C 260.80 197.30 259.44 197.63 258.11 198.04 C 255.10 198.54 252.12 199.24 249.17 200.06 C 247.80 200.30 246.45 200.61 245.12 201.02 C 242.10 201.55 239.12 202.25 236.17 203.06 C 234.80 203.30 233.45 203.61 232.12 204.03 C 229.10 204.55 226.12 205.25 223.16 206.04 C 221.80 206.31 220.46 206.64 219.13 207.01 C 214.77 207.91 210.43 208.85 206.14 210.03 C 201.78 210.88 197.43 211.86 193.15 213.04 C 191.76 213.26 190.36 213.44 189.07 214.02 C 184.11 215.16 179.03 215.69 174.12 217.00 C 171.74 217.50 169.43 218.26 167.16 219.09 C 162.76 219.83 158.42 220.90 154.12 222.03 C 151.81 222.45 149.53 222.95 147.24 223.46 C 147.72 223.79 148.67 224.45 149.15 224.78 C 149.80 225.49 150.46 226.19 151.12 226.89 C 158.16 233.85 164.89 241.15 172.37 247.65 C 191.36 266.74 210.43 285.76 229.44 304.84 C 233.00 304.89 236.42 303.92 239.81 302.96 C 241.17 302.66 242.52 302.35 243.86 301.98 C 245.21 301.70 246.57 301.38 247.90 300.99 C 254.90 299.47 261.86 297.69 268.82 295.97 C 270.17 295.67 271.53 295.35 272.87 294.99 C 274.22 294.70 275.57 294.39 276.89 293.99 C 283.91 292.48 290.85 290.68 297.82 288.97 C 299.18 288.68 300.54 288.37 301.88 287.99 C 303.23 287.71 304.58 287.40 305.90 286.98 C 309.71 286.33 313.37 285.02 317.21 284.55 C 311.17 279.00 305.44 273.12 299.81 267.17 C 291.10 268.15 282.73 271.16 274.17 273.03 C 272.82 273.32 271.48 273.65 270.14 274.00 C 268.80 274.31 267.46 274.65 266.13 274.99 C 264.79 275.31 263.45 275.65 262.12 275.99 C 260.78 276.31 259.44 276.63 258.12 276.99 C 256.77 277.29 255.43 277.62 254.10 277.98 C 252.75 278.28 251.42 278.61 250.11 279.02 C 248.66 279.24 247.17 279.42 246.00 280.39 C 245.58 280.29 244.75 280.08 244.34 279.98 C 240.89 277.00 237.81 273.62 235.01 270.02 C 229.90 265.11 225.21 259.73 219.80 255.17 C 213.50 249.82 208.04 243.54 202.05 237.84 C 204.66 237.25 207.25 236.62 209.84 235.96 C 211.21 235.71 212.57 235.38 213.91 234.97 C 216.92 234.46 219.89 233.77 222.84 232.94 C 224.21 232.71 225.56 232.39 226.89 231.96 C 229.91 231.46 232.88 230.76 235.83 229.95 C 237.20 229.70 238.56 229.39 239.89 228.97 C 242.90 228.46 245.87 227.75 248.81 226.95 C 250.18 226.69 251.54 226.37 252.88 225.97 C 257.24 225.13 261.57 224.12 265.86 222.97 C 270.22 222.12 274.55 221.07 278.86 219.97 C 280.22 219.72 281.59 219.42 282.91 218.98 C 286.01 218.44 289.07 217.70 292.15 217.05 C 284.91 209.87 277.79 202.55 270.49 195.45 C 267.78 195.07 264.91 196.56 262.18 197.05 M 219.19 243.87 C 227.71 252.80 236.71 261.25 245.25 270.15 C 263.67 266.19 281.85 261.03 300.42 257.93 C 308.56 266.41 316.70 274.92 325.46 282.75 C 334.14 280.43 342.92 278.52 351.64 276.36 C 334.79 259.08 317.60 242.12 300.51 225.06 C 273.44 231.49 246.25 237.41 219.19 243.87 Z" />
</g>
<g id="#366c50ff">
<path fill="#366c50" opacity="1.00" d=" M 279.87 131.88 C 306.98 88.08 334.62 44.61 361.72 0.81 C 361.26 3.95 360.34 6.99 359.48 10.03 C 351.18 41.70 342.59 73.29 334.38 104.97 C 340.91 93.51 348.32 82.54 355.20 71.28 C 364.97 55.57 374.93 39.98 384.57 24.20 C 379.42 45.19 373.51 66.02 368.09 86.95 C 361.84 110.00 356.04 133.18 349.56 156.16 C 351.90 159.54 354.87 162.39 357.68 165.36 C 387.39 195.96 416.99 226.66 446.69 257.28 C 447.93 258.60 449.34 259.89 449.98 261.65 C 459.34 286.02 468.70 310.39 478.09 334.75 C 478.36 335.84 478.51 336.95 478.55 338.09 C 478.11 337.35 477.67 336.61 477.25 335.87 C 464.49 322.27 451.07 309.30 438.41 295.59 C 423.39 280.61 409.04 264.99 394.05 249.98 C 386.71 242.62 379.82 234.83 372.45 227.51 C 357.13 212.19 342.62 196.07 327.02 181.02 C 310.88 165.04 295.89 147.96 279.87 131.88 Z" />
<path fill="#366c50" opacity="1.00" d=" M 24.80 159.11 C 25.97 159.29 27.12 159.55 28.25 159.90 C 52.46 169.64 76.66 179.40 100.89 189.10 C 103.00 190.22 104.49 192.18 106.20 193.81 C 137.23 224.79 168.28 255.74 199.31 286.72 C 208.29 295.81 217.54 304.65 226.34 313.91 C 227.53 313.75 228.71 313.57 229.89 313.35 C 270.20 303.32 310.52 293.32 350.83 283.28 C 353.78 282.52 356.71 281.67 359.75 281.33 C 316.08 307.39 272.70 333.98 229.09 360.14 C 228.59 360.34 227.58 360.74 227.07 360.95 C 172.21 305.79 116.99 250.99 62.01 195.94 C 49.56 183.72 37.54 171.03 24.80 159.11 Z" />
<path fill="#366c50" opacity="1.00" d=" M 219.19 243.87 C 246.25 237.41 273.44 231.49 300.51 225.06 C 317.60 242.12 334.79 259.08 351.64 276.36 C 342.92 278.52 334.14 280.43 325.46 282.75 C 316.70 274.92 308.56 266.41 300.42 257.93 C 281.85 261.03 263.67 266.19 245.25 270.15 C 236.71 261.25 227.71 252.80 219.19 243.87 Z" />
</g>
<g id="#08102bff">
<path fill="#08102b" opacity="1.00" d=" M 140.70 214.87 C 185.17 189.05 229.66 163.25 274.07 137.31 C 275.18 138.45 276.33 139.58 277.46 140.72 L 277.51 141.51 L 278.56 141.46 L 278.54 142.21 C 278.85 142.53 279.46 143.16 279.77 143.47 L 280.50 143.48 L 280.45 144.51 L 281.19 144.61 C 289.67 154.24 299.33 162.76 307.80 172.40 L 308.56 172.49 L 308.49 173.53 L 309.22 173.53 C 309.53 173.85 310.14 174.48 310.45 174.79 L 310.44 175.53 L 311.48 175.52 L 311.55 176.23 C 320.11 185.14 328.85 193.86 337.46 202.73 L 337.53 203.50 L 338.56 203.47 L 338.55 204.21 C 338.85 204.53 339.47 205.16 339.77 205.47 L 340.51 205.48 L 340.44 206.54 L 341.47 206.51 L 341.54 207.27 C 349.89 216.04 358.74 224.34 366.78 233.38 L 367.56 233.47 L 367.51 234.51 L 368.24 234.52 C 368.55 234.84 369.16 235.47 369.47 235.78 L 369.45 236.52 L 370.50 236.48 L 370.45 237.51 L 371.19 237.62 C 379.62 246.97 388.79 255.62 397.45 264.74 L 397.53 265.51 L 398.55 265.47 L 398.55 266.21 C 398.85 266.53 399.46 267.16 399.77 267.48 L 400.50 267.48 L 400.45 268.51 L 401.19 268.62 C 409.61 277.96 418.78 286.62 427.46 295.74 L 427.52 296.51 L 428.56 296.47 L 428.55 297.21 C 428.85 297.53 429.46 298.16 429.77 298.48 L 430.51 298.48 L 430.44 299.53 L 431.19 299.60 C 439.60 308.97 448.79 317.61 457.45 326.75 L 457.52 327.50 L 458.24 327.52 C 458.54 327.84 459.15 328.47 459.45 328.79 L 459.55 329.26 C 460.11 329.74 460.68 330.25 461.24 330.75 C 465.19 335.12 469.26 339.41 473.65 343.36 C 448.01 333.08 422.76 321.83 397.20 311.37 C 379.59 293.79 362.60 275.59 345.13 257.87 C 321.65 233.27 297.68 209.13 274.31 184.42 C 246.21 190.66 218.20 197.33 190.13 203.73 C 173.63 207.32 157.27 211.64 140.70 214.87 Z" />
<path fill="#08102b" opacity="1.00" d=" M 19.57 163.83 C 19.97 164.59 20.38 165.36 20.77 166.13 C 21.51 166.73 22.22 167.35 22.91 167.99 C 71.60 216.67 120.33 265.31 169.00 314.01 C 180.50 324.83 191.77 335.93 202.52 347.50 C 208.99 353.97 215.50 360.38 221.89 366.91 C 196.72 408.38 171.81 450.00 146.73 491.53 C 145.18 494.08 143.69 496.66 142.22 499.26 C 144.80 486.60 148.34 474.14 151.32 461.57 C 156.67 439.25 162.59 417.05 167.61 394.67 C 162.17 405.15 155.54 415.00 149.58 425.20 C 139.47 442.24 128.96 459.05 119.05 476.20 C 122.87 458.33 127.77 440.69 131.97 422.91 C 138.53 396.65 144.90 370.35 151.48 344.10 C 151.21 342.22 149.60 340.95 148.46 339.57 C 115.92 307.07 83.38 274.58 50.83 242.09 C 49.97 241.18 49.55 239.98 49.06 238.86 C 39.88 216.08 30.73 193.29 21.46 170.55 C 20.52 168.40 19.48 166.23 19.57 163.83 Z" />
<path fill="#08102b" opacity="1.00" d=" M 262.18 197.05 C 264.91 196.56 267.78 195.07 270.49 195.45 C 277.79 202.55 284.91 209.87 292.15 217.05 C 289.07 217.70 286.01 218.44 282.91 218.98 C 281.59 219.42 280.22 219.72 278.86 219.97 C 274.55 221.07 270.22 222.12 265.86 222.97 C 261.57 224.12 257.24 225.13 252.88 225.97 C 251.54 226.37 250.18 226.69 248.81 226.95 C 245.87 227.75 242.90 228.46 239.89 228.97 C 238.56 229.39 237.20 229.70 235.83 229.95 C 232.88 230.76 229.91 231.46 226.89 231.96 C 225.56 232.39 224.21 232.71 222.84 232.94 C 219.89 233.77 216.92 234.46 213.91 234.97 C 212.57 235.38 211.21 235.71 209.84 235.96 C 207.25 236.62 204.66 237.25 202.05 237.84 C 208.04 243.54 213.50 249.82 219.80 255.17 C 225.21 259.73 229.90 265.11 235.01 270.02 C 237.81 273.62 240.89 277.00 244.34 279.98 C 244.75 280.08 245.58 280.29 246.00 280.39 C 247.17 279.42 248.66 279.24 250.11 279.02 C 251.42 278.61 252.75 278.28 254.10 277.98 C 255.43 277.62 256.77 277.29 258.12 276.99 C 259.44 276.63 260.78 276.31 262.12 275.99 C 263.45 275.65 264.79 275.31 266.13 274.99 C 267.46 274.65 268.80 274.31 270.14 274.00 C 271.48 273.65 272.82 273.32 274.17 273.03 C 282.73 271.16 291.10 268.15 299.81 267.17 C 305.44 273.12 311.17 279.00 317.21 284.55 C 313.37 285.02 309.71 286.33 305.90 286.98 C 304.58 287.40 303.23 287.71 301.88 287.99 C 300.54 288.37 299.18 288.68 297.82 288.97 C 290.85 290.68 283.91 292.48 276.89 293.99 C 275.57 294.39 274.22 294.70 272.87 294.99 C 271.53 295.35 270.17 295.67 268.82 295.97 C 261.86 297.69 254.90 299.47 247.90 300.99 C 246.57 301.38 245.21 301.70 243.86 301.98 C 242.52 302.35 241.17 302.66 239.81 302.96 C 236.42 303.92 233.00 304.89 229.44 304.84 C 210.43 285.76 191.36 266.74 172.37 247.65 C 164.89 241.15 158.16 233.85 151.12 226.89 C 150.46 226.19 149.80 225.49 149.15 224.78 C 148.67 224.45 147.72 223.79 147.24 223.46 C 149.53 222.95 151.81 222.45 154.12 222.03 C 158.42 220.90 162.76 219.83 167.16 219.09 C 169.43 218.26 171.74 217.50 174.12 217.00 C 179.03 215.69 184.11 215.16 189.07 214.02 C 190.36 213.44 191.76 213.26 193.15 213.04 C 197.43 211.86 201.78 210.88 206.14 210.03 C 210.43 208.85 214.77 207.91 219.13 207.01 C 220.46 206.64 221.80 206.31 223.16 206.04 C 226.12 205.25 229.10 204.55 232.12 204.03 C 233.45 203.61 234.80 203.30 236.17 203.06 C 239.12 202.25 242.10 201.55 245.12 201.02 C 246.45 200.61 247.80 200.30 249.17 200.06 C 252.12 199.24 255.10 198.54 258.11 198.04 C 259.44 197.63 260.80 197.30 262.18 197.05 Z" />
</g>
</svg>
