<svg xmlns="http://www.w3.org/2000/svg" xmlns:xlink="http://www.w3.org/1999/xlink" width="500" zoomAndPan="magnify" viewBox="0 0 375 374.999991" height="500" preserveAspectRatio="xMidYMid meet" version="1.0"><path fill="#366c50" d="M 209.886719 98.902344 C 230.273438 66.082031 250.90625 33.414062 271.34375 0.621094 C 264.699219 26.722656 257.527344 52.695312 250.738281 78.757812 C 263.011719 58.394531 276.015625 38.476562 288.40625 18.179688 C 284.574219 33.90625 280.132812 49.484375 276.082031 65.160156 C 271.394531 82.484375 267.007812 99.886719 262.175781 117.164062 C 264.511719 120.34375 267.390625 123.050781 270.082031 125.917969 C 290.925781 147.328125 311.632812 168.878906 332.460938 190.304688 C 334.386719 192.472656 336.945312 194.308594 337.875 197.183594 C 344.113281 213.613281 350.496094 229.996094 356.761719 246.421875 C 357.667969 248.746094 358.777344 251.039062 359.003906 253.566406 C 358.636719 253.019531 358.265625 252.464844 357.914062 251.917969 C 348.375 241.679688 338.289062 231.96875 328.800781 221.683594 C 317.773438 210.699219 307.238281 199.238281 296.25 188.210938 C 290.488281 182.453125 285.097656 176.347656 279.316406 170.601562 C 269.308594 160.621094 259.800781 150.164062 249.78125 140.191406 C 235.964844 126.929688 223.386719 112.46875 209.886719 98.902344 Z M 209.886719 98.902344 " fill-opacity="1" fill-rule="nonzero"/><path fill="#366c50" d="M 18.578125 119.234375 C 19.613281 119.511719 20.664062 119.761719 21.675781 120.128906 C 39.421875 127.238281 57.140625 134.4375 74.902344 141.503906 C 76.171875 141.984375 77.203125 142.867188 78.140625 143.8125 C 108.628906 174.425781 139.410156 204.757812 169.800781 235.460938 C 170.820312 235.289062 171.839844 235.125 172.851562 234.914062 C 202.941406 227.414062 233.046875 219.953125 263.136719 212.453125 C 265.335938 211.851562 267.539062 211.296875 269.796875 211.019531 C 236.878906 230.632812 204.21875 250.6875 171.351562 270.375 C 170.664062 270.683594 170.09375 270.53125 169.636719 269.933594 C 133.484375 233.8125 97.3125 197.714844 61.164062 161.59375 C 46.933594 147.503906 32.960938 133.164062 18.578125 119.234375 Z M 18.578125 119.234375 " fill-opacity="1" fill-rule="nonzero"/><path fill="#366c50" d="M 151.828125 157.941406 C 168.75 153.96875 185.722656 150.1875 202.621094 146.136719 C 208.199219 151.671875 213.757812 157.222656 219.277344 162.816406 C 196.84375 168.113281 174.351562 173.167969 151.921875 178.484375 C 159.914062 187.109375 169.027344 194.574219 176.984375 203.21875 C 178.914062 205.6875 181.171875 207.847656 183.382812 210.050781 C 197.078125 206.820312 210.675781 203.136719 224.390625 200.078125 C 229.199219 204.238281 233.390625 209.085938 238.027344 213.441406 C 216.179688 218.542969 194.398438 223.957031 172.574219 229.164062 C 157.769531 214.816406 143.398438 200.023438 128.773438 185.488281 C 122.378906 179.753906 116.578125 173.390625 110.390625 167.429688 C 117.515625 165.871094 124.664062 164.363281 131.65625 162.285156 C 138.457031 161.21875 145.109375 159.425781 151.828125 157.941406 Z M 151.828125 157.941406 " fill-opacity="1" fill-rule="nonzero"/><path fill="#08102b" d="M 105.53125 161.175781 C 138.863281 141.78125 172.230469 122.4375 205.546875 103.003906 C 206.398438 103.835938 207.253906 104.683594 208.09375 105.539062 L 208.140625 106.125 L 208.914062 106.09375 L 208.914062 106.671875 C 209.136719 106.90625 209.585938 107.371094 209.8125 107.601562 L 210.382812 107.609375 L 210.335938 108.390625 L 210.871094 108.472656 C 217.296875 115.636719 224.453125 122.109375 230.871094 129.285156 L 231.414062 129.359375 L 231.359375 130.148438 L 231.929688 130.15625 C 232.15625 130.386719 232.605469 130.851562 232.828125 131.085938 L 232.835938 131.648438 L 233.386719 131.714844 C 239.78125 138.90625 246.96875 145.359375 253.371094 152.542969 L 253.90625 152.609375 L 253.914062 153.171875 C 254.136719 153.40625 254.585938 153.871094 254.8125 154.101562 L 255.382812 154.109375 L 255.328125 154.90625 L 256.101562 154.882812 L 256.164062 155.445312 C 262.425781 162.023438 269.023438 168.292969 275.121094 175.019531 L 275.671875 175.101562 L 275.625 175.882812 L 276.414062 175.84375 L 276.414062 176.421875 C 276.636719 176.65625 277.085938 177.121094 277.3125 177.351562 L 277.867188 177.367188 L 277.914062 177.929688 C 284.671875 185.03125 291.78125 191.789062 298.371094 199.042969 L 298.914062 199.101562 L 298.859375 199.890625 L 299.429688 199.90625 C 299.65625 200.136719 300.105469 200.601562 300.328125 200.835938 L 300.335938 201.398438 L 300.863281 201.472656 C 307.289062 208.640625 314.460938 215.109375 320.871094 222.292969 L 321.40625 222.359375 L 321.414062 222.921875 C 321.636719 223.15625 322.085938 223.621094 322.3125 223.851562 L 322.890625 223.867188 L 322.835938 224.648438 L 323.363281 224.722656 C 329.730469 231.699219 336.5625 238.222656 343.085938 245.046875 L 343.132812 245.625 L 343.90625 245.601562 L 343.914062 246.171875 C 344.136719 246.40625 344.585938 246.863281 344.804688 247.085938 L 345.121094 247.191406 C 348.359375 250.769531 351.644531 254.332031 355.296875 257.503906 C 336.683594 250.117188 318.375 241.964844 299.863281 234.316406 C 297.511719 233.609375 295.933594 231.699219 294.324219 229.980469 C 273.390625 208.441406 252.5625 186.808594 231.644531 165.261719 C 223.101562 156.164062 214.132812 147.488281 205.703125 138.292969 C 173.210938 145.679688 140.765625 153.238281 108.292969 160.6875 C 107.378906 160.867188 106.453125 161.023438 105.53125 161.175781 Z M 105.53125 161.175781 " fill-opacity="1" fill-rule="nonzero"/><path fill="#08102b" d="M 14.585938 122.878906 C 14.941406 123.425781 15.285156 123.984375 15.628906 124.546875 C 53.023438 161.691406 90.226562 199.042969 127.539062 236.28125 C 134.21875 242.324219 140.40625 248.894531 146.851562 255.203125 C 153.066406 262.148438 159.9375 268.46875 166.417969 275.175781 C 146.421875 308.226562 126.480469 341.316406 106.605469 374.453125 C 112.753906 348.246094 119.59375 322.199219 125.78125 296.011719 C 124.183594 299.378906 122.023438 302.429688 120.179688 305.664062 C 109.875 322.808594 99.480469 339.898438 89.242188 357.082031 C 97.148438 324.03125 105.503906 291.074219 113.601562 258.058594 C 113.398438 256.65625 112.191406 255.710938 111.34375 254.671875 C 88.320312 231.675781 65.296875 208.6875 42.269531 185.699219 C 40.34375 183.601562 37.734375 181.925781 36.78125 179.109375 C 30.113281 162.523438 23.421875 145.949219 16.703125 129.382812 C 15.847656 127.265625 14.753906 125.191406 14.585938 122.878906 Z M 14.585938 122.878906 " fill-opacity="1" fill-rule="nonzero"/><path fill="#08102b" d="M 164.4375 182.941406 C 184.738281 178.207031 205.074219 173.632812 225.382812 168.921875 C 238.074219 181.621094 250.835938 194.257812 263.414062 207.074219 C 257.015625 209.015625 250.394531 210.285156 243.898438 211.941406 C 239.484375 207.425781 234.675781 203.308594 230.445312 198.621094 C 228.742188 196.703125 226.90625 194.933594 225.046875 193.175781 C 211.328125 196.035156 197.707031 199.34375 184.066406 202.550781 C 177.554688 195.988281 170.96875 189.496094 164.4375 182.941406 Z M 164.4375 182.941406 " fill-opacity="1" fill-rule="nonzero"/></svg>
