<svg xmlns="http://www.w3.org/2000/svg" xmlns:xlink="http://www.w3.org/1999/xlink" width="500" zoomAndPan="magnify" viewBox="0 0 375 374.999991" height="500" preserveAspectRatio="xMidYMid meet" version="1.0"><defs><clipPath id="45b185afaf"><path d="M 15.804688 15.804688 L 359.304688 15.804688 L 359.304688 359.304688 L 15.804688 359.304688 Z M 15.804688 15.804688 " clip-rule="nonzero"/></clipPath><clipPath id="ab17d715b2"><path d="M 202 65 L 300 65 L 300 231 L 202 231 Z M 202 65 " clip-rule="nonzero"/></clipPath><clipPath id="ea2e8d62ca"><path d="M 133.796875 170.484375 L 242.125 65.652344 L 352.175781 179.371094 L 243.84375 284.207031 Z M 133.796875 170.484375 " clip-rule="nonzero"/></clipPath><clipPath id="bad0c986d9"><path d="M 133.796875 170.484375 L 242.125 65.652344 L 352.175781 179.371094 L 243.84375 284.207031 Z M 133.796875 170.484375 " clip-rule="nonzero"/></clipPath><clipPath id="e249441e53"><path d="M 133 132 L 297 132 L 297 234 L 133 234 Z M 133 132 " clip-rule="nonzero"/></clipPath><clipPath id="85054567c9"><path d="M 133.796875 170.484375 L 242.125 65.652344 L 352.175781 179.371094 L 243.84375 284.207031 Z M 133.796875 170.484375 " clip-rule="nonzero"/></clipPath><clipPath id="67dd045562"><path d="M 133.796875 170.484375 L 242.125 65.652344 L 352.175781 179.371094 L 243.84375 284.207031 Z M 133.796875 170.484375 " clip-rule="nonzero"/></clipPath><clipPath id="7b771d5525"><path d="M 213 77 L 279 77 L 279 155 L 213 155 Z M 213 77 " clip-rule="nonzero"/></clipPath><clipPath id="73c50e0fc7"><path d="M 200.125 128.523438 L 253.484375 76.890625 L 278.515625 102.757812 L 225.160156 154.394531 Z M 200.125 128.523438 " clip-rule="nonzero"/></clipPath><clipPath id="a76ccc0284"><path d="M 144.902344 181.960938 L 253.234375 77.128906 L 363.28125 190.851562 L 254.953125 295.683594 Z M 144.902344 181.960938 " clip-rule="nonzero"/></clipPath><clipPath id="430febb907"><path d="M 74 145 L 174 145 L 174 310 L 74 310 Z M 74 145 " clip-rule="nonzero"/></clipPath><clipPath id="e5fbd444eb"><path d="M 241.316406 202.667969 L 134.800781 309.34375 L 22.816406 197.527344 L 129.335938 90.851562 Z M 241.316406 202.667969 " clip-rule="nonzero"/></clipPath><clipPath id="8ca0a5c9e9"><path d="M 241.316406 202.667969 L 134.800781 309.34375 L 22.816406 197.527344 L 129.335938 90.851562 Z M 241.316406 202.667969 " clip-rule="nonzero"/></clipPath><clipPath id="b90f8d402e"><path d="M 77 142 L 242 142 L 242 242 L 77 242 Z M 77 142 " clip-rule="nonzero"/></clipPath><clipPath id="81fdc76e71"><path d="M 241.316406 202.667969 L 134.800781 309.34375 L 22.816406 197.527344 L 129.335938 90.851562 Z M 241.316406 202.667969 " clip-rule="nonzero"/></clipPath><clipPath id="5df216c554"><path d="M 241.316406 202.667969 L 134.800781 309.34375 L 22.816406 197.527344 L 129.335938 90.851562 Z M 241.316406 202.667969 " clip-rule="nonzero"/></clipPath><clipPath id="78fe08c10e"><path d="M 97 220 L 163 220 L 163 299 L 97 299 Z M 97 220 " clip-rule="nonzero"/></clipPath><clipPath id="cb611e8325"><path d="M 175.710938 245.761719 L 123.25 298.304688 L 97.773438 272.867188 L 150.238281 220.324219 Z M 175.710938 245.761719 " clip-rule="nonzero"/></clipPath><clipPath id="33cc42d98d"><path d="M 230.011719 191.382812 L 123.492188 298.058594 L 11.511719 186.242188 L 118.027344 79.566406 Z M 230.011719 191.382812 " clip-rule="nonzero"/></clipPath></defs><path fill="#000000" d="M 187.5 0 C 84.074219 0 0 84.148438 0 187.5 C 0 290.925781 84.074219 375 187.5 375 C 290.851562 375 375 290.925781 375 187.5 C 375 84.148438 290.851562 0 187.5 0 Z M 187.5 360.375 C 92.175781 360.375 14.625 282.824219 14.625 187.5 C 14.625 92.175781 92.175781 14.625 187.5 14.625 C 282.824219 14.625 360.375 92.175781 360.375 187.5 C 360.375 282.824219 282.824219 360.375 187.5 360.375 Z M 187.5 360.375 " fill-opacity="1" fill-rule="nonzero"/><path fill="#000000" d="M 187.5 24.375 C 97.574219 24.375 24.375 97.574219 24.375 187.5 C 24.375 277.425781 97.574219 350.625 187.5 350.625 C 277.425781 350.625 350.625 277.425781 350.625 187.5 C 350.625 97.574219 277.425781 24.375 187.5 24.375 Z M 187.5 24.375 " fill-opacity="1" fill-rule="nonzero"/><g clip-path="url(#45b185afaf)"><path fill="#ffffff" d="M 187.589844 359.304688 C 141.734375 359.304688 98.550781 341.441406 66.109375 309.003906 C 33.667969 276.5625 15.804688 233.445312 15.804688 187.589844 C 15.804688 141.734375 33.667969 98.550781 66.109375 66.109375 C 98.550781 33.667969 141.667969 15.804688 187.589844 15.804688 C 233.511719 15.804688 276.5625 33.667969 309.003906 66.109375 C 341.441406 98.550781 359.304688 141.667969 359.304688 187.589844 C 359.304688 233.511719 341.441406 276.5625 309.003906 309.003906 C 276.5625 341.441406 233.445312 359.304688 187.589844 359.304688 Z M 187.589844 26.070312 C 144.472656 26.070312 103.886719 42.839844 73.363281 73.363281 C 42.839844 103.886719 26.070312 144.40625 26.070312 187.589844 C 26.070312 230.777344 42.839844 271.292969 73.363281 301.816406 C 103.886719 332.339844 144.40625 349.109375 187.589844 349.109375 C 230.777344 349.109375 271.292969 332.339844 301.816406 301.816406 C 332.339844 271.292969 349.109375 230.777344 349.109375 187.589844 C 349.109375 144.40625 332.339844 103.886719 301.816406 73.363281 C 271.222656 42.839844 230.707031 26.070312 187.589844 26.070312 Z M 187.589844 26.070312 " fill-opacity="1" fill-rule="nonzero"/></g><path fill="#ffffff" d="M 184.167969 337.882812 L 183.757812 337.882812 C 182.25 337.816406 181.089844 336.582031 181.15625 335.148438 C 181.226562 333.710938 182.390625 332.546875 183.824219 332.546875 C 183.824219 332.546875 183.894531 332.546875 183.894531 332.546875 L 184.238281 332.546875 C 185.742188 332.613281 186.90625 333.847656 186.835938 335.285156 C 186.835938 336.722656 185.675781 337.882812 184.167969 337.882812 Z M 197.71875 337.542969 C 196.28125 337.542969 195.117188 336.445312 195.050781 335.007812 C 194.980469 333.503906 196.078125 332.273438 197.582031 332.136719 L 197.855469 332.136719 C 199.363281 332 200.664062 333.160156 200.730469 334.597656 C 200.867188 336.105469 199.703125 337.40625 198.265625 337.472656 L 197.925781 337.472656 C 197.789062 337.542969 197.71875 337.542969 197.71875 337.542969 Z M 170.410156 336.925781 C 170.34375 336.925781 170.207031 336.925781 170.070312 336.925781 L 169.726562 336.859375 C 168.222656 336.652344 167.195312 335.351562 167.398438 333.847656 C 167.605469 332.339844 168.90625 331.3125 170.410156 331.519531 L 170.753906 331.585938 C 172.257812 331.726562 173.285156 333.09375 173.148438 334.597656 C 172.875 335.898438 171.710938 336.925781 170.410156 336.925781 Z M 211.40625 335.96875 C 210.105469 335.96875 208.945312 335.007812 208.738281 333.710938 C 208.464844 332.273438 209.492188 330.835938 210.996094 330.628906 L 211.339844 330.5625 C 212.777344 330.355469 214.214844 331.3125 214.417969 332.820312 C 214.625 334.324219 213.664062 335.695312 212.160156 335.898438 L 211.816406 335.96875 C 211.75 335.96875 211.613281 335.96875 211.40625 335.96875 Z M 156.722656 334.667969 C 156.519531 334.667969 156.382812 334.667969 156.175781 334.597656 L 155.835938 334.53125 C 154.398438 334.1875 153.4375 332.75 153.78125 331.3125 C 154.121094 329.875 155.558594 328.917969 156.996094 329.261719 L 157.339844 329.328125 C 158.777344 329.671875 159.734375 331.039062 159.394531 332.546875 C 159.117188 333.847656 157.957031 334.667969 156.722656 334.667969 Z M 224.957031 333.160156 C 223.726562 333.160156 222.632812 332.339844 222.359375 331.109375 C 222.015625 329.671875 222.835938 328.164062 224.34375 327.824219 L 224.617188 327.753906 C 226.054688 327.34375 227.558594 328.234375 227.902344 329.671875 C 228.3125 331.109375 227.421875 332.613281 225.984375 332.957031 L 225.644531 333.023438 C 225.4375 333.09375 225.164062 333.160156 224.957031 333.160156 Z M 143.378906 331.175781 C 143.105469 331.175781 142.832031 331.109375 142.558594 331.039062 L 142.28125 330.972656 C 140.84375 330.492188 140.023438 328.988281 140.503906 327.550781 C 140.984375 326.113281 142.417969 325.359375 143.855469 325.769531 L 144.199219 325.839844 C 145.636719 326.25 146.390625 327.824219 145.980469 329.191406 C 145.566406 330.425781 144.472656 331.175781 143.378906 331.175781 Z M 238.167969 328.988281 C 237.070312 328.988281 236.046875 328.300781 235.636719 327.207031 C 235.15625 325.839844 235.839844 324.265625 237.277344 323.785156 L 237.550781 323.648438 C 238.921875 323.167969 240.496094 323.855469 241.042969 325.222656 C 241.519531 326.589844 240.835938 328.164062 239.46875 328.714844 L 239.125 328.851562 C 238.785156 328.988281 238.507812 328.988281 238.167969 328.988281 Z M 130.375 326.453125 C 130.03125 326.453125 129.691406 326.386719 129.347656 326.25 L 129.003906 326.113281 C 127.636719 325.496094 127.019531 323.921875 127.566406 322.554688 C 128.183594 321.183594 129.757812 320.570312 131.128906 321.117188 L 131.402344 321.253906 C 132.769531 321.800781 133.453125 323.375 132.839844 324.8125 C 132.425781 325.769531 131.402344 326.453125 130.375 326.453125 Z M 250.964844 323.648438 C 249.9375 323.648438 248.980469 323.101562 248.570312 322.144531 C 247.953125 320.773438 248.5 319.199219 249.800781 318.515625 L 250.144531 318.378906 C 251.511719 317.761719 253.085938 318.308594 253.773438 319.679688 C 254.386719 321.046875 253.839844 322.621094 252.472656 323.238281 L 252.199219 323.375 C 251.71875 323.582031 251.308594 323.648438 250.964844 323.648438 Z M 117.851562 320.433594 C 117.4375 320.433594 116.960938 320.296875 116.550781 320.089844 L 116.277344 319.953125 C 114.976562 319.269531 114.496094 317.625 115.179688 316.324219 C 115.863281 315.023438 117.507812 314.546875 118.808594 315.230469 L 119.082031 315.367188 C 120.382812 316.050781 120.859375 317.695312 120.175781 318.996094 C 119.765625 319.953125 118.808594 320.433594 117.851562 320.433594 Z M 263.148438 317.148438 C 262.257812 317.148438 261.367188 316.667969 260.820312 315.847656 C 260.066406 314.546875 260.480469 312.902344 261.710938 312.152344 L 261.984375 311.945312 C 263.285156 311.191406 264.925781 311.601562 265.679688 312.902344 C 266.433594 314.203125 266.023438 315.847656 264.722656 316.597656 L 264.449219 316.734375 C 264.105469 317.011719 263.625 317.148438 263.148438 317.148438 Z M 105.941406 313.3125 C 105.460938 313.3125 104.914062 313.175781 104.4375 312.835938 L 104.160156 312.628906 C 102.929688 311.808594 102.585938 310.167969 103.410156 308.867188 C 104.230469 307.632812 105.871094 307.292969 107.171875 308.113281 L 107.445312 308.316406 C 108.679688 309.140625 109.019531 310.78125 108.199219 312.082031 C 107.722656 312.902344 106.832031 313.3125 105.941406 313.3125 Z M 274.714844 309.480469 C 273.894531 309.480469 273.070312 309.070312 272.523438 308.386719 C 271.632812 307.222656 271.90625 305.511719 273.070312 304.621094 L 273.34375 304.417969 C 274.578125 303.527344 276.21875 303.800781 277.109375 304.964844 C 278 306.195312 277.726562 307.839844 276.5625 308.730469 L 276.289062 308.933594 C 275.808594 309.34375 275.261719 309.480469 274.714844 309.480469 Z M 94.785156 305.171875 C 94.167969 305.171875 93.554688 304.964844 93.074219 304.554688 L 92.800781 304.347656 C 91.636719 303.390625 91.433594 301.746094 92.390625 300.585938 C 93.347656 299.421875 94.992188 299.214844 96.15625 300.175781 L 96.429688 300.378906 C 97.589844 301.335938 97.730469 303.046875 96.839844 304.144531 C 96.359375 304.828125 95.605469 305.171875 94.785156 305.171875 Z M 285.460938 300.789062 C 284.707031 300.789062 283.953125 300.515625 283.472656 299.898438 C 282.515625 298.804688 282.585938 297.09375 283.679688 296.136719 L 283.953125 295.929688 C 285.046875 294.902344 286.757812 295.039062 287.785156 296.136719 C 288.8125 297.230469 288.675781 298.941406 287.582031 299.96875 L 287.375 300.175781 C 286.757812 300.585938 286.074219 300.789062 285.460938 300.789062 Z M 84.453125 295.929688 C 83.765625 295.929688 83.082031 295.65625 82.601562 295.175781 L 82.328125 294.902344 C 81.234375 293.878906 81.234375 292.167969 82.328125 291.070312 C 83.355469 289.976562 85.066406 289.976562 86.164062 291.070312 L 86.367188 291.277344 C 87.460938 292.304688 87.460938 294.015625 86.4375 295.109375 C 85.886719 295.726562 85.136719 295.929688 84.453125 295.929688 Z M 295.382812 291.140625 C 294.699219 291.140625 294.082031 290.933594 293.535156 290.386719 C 292.441406 289.359375 292.371094 287.648438 293.398438 286.554688 L 293.605469 286.28125 C 294.628906 285.183594 296.339844 285.117188 297.4375 286.144531 C 298.53125 287.171875 298.601562 288.882812 297.574219 289.976562 L 297.367188 290.179688 C 296.820312 290.867188 296.066406 291.140625 295.382812 291.140625 Z M 75.007812 285.871094 C 74.253906 285.871094 73.5 285.527344 72.953125 284.910156 L 72.746094 284.636719 C 71.789062 283.472656 71.925781 281.832031 73.089844 280.804688 C 74.253906 279.847656 75.894531 279.984375 76.921875 281.148438 L 77.128906 281.421875 C 78.085938 282.585938 77.949219 284.226562 76.785156 285.253906 C 76.238281 285.664062 75.621094 285.871094 75.007812 285.871094 Z M 304.347656 280.601562 C 303.800781 280.601562 303.183594 280.394531 302.707031 280.050781 C 301.542969 279.164062 301.269531 277.453125 302.226562 276.289062 L 302.433594 276.015625 C 303.320312 274.851562 305.03125 274.644531 306.195312 275.535156 C 307.359375 276.425781 307.566406 278.136719 306.675781 279.300781 L 306.46875 279.574219 C 305.992188 280.257812 305.171875 280.601562 304.347656 280.601562 Z M 66.589844 274.917969 C 65.765625 274.917969 64.878906 274.507812 64.398438 273.757812 L 64.191406 273.480469 C 63.371094 272.25 63.644531 270.609375 64.878906 269.71875 C 66.109375 268.898438 67.75 269.171875 68.640625 270.402344 L 68.847656 270.675781 C 69.667969 271.90625 69.394531 273.550781 68.164062 274.441406 C 67.613281 274.714844 67.066406 274.917969 66.589844 274.917969 Z M 312.289062 269.308594 C 311.808594 269.308594 311.328125 269.171875 310.851562 268.898438 C 309.617188 268.074219 309.207031 266.433594 310.027344 265.199219 L 310.234375 264.925781 C 311.054688 263.695312 312.699219 263.285156 313.929688 264.105469 C 315.164062 264.925781 315.574219 266.570312 314.75 267.800781 L 314.546875 268.074219 C 314.066406 268.828125 313.175781 269.308594 312.289062 269.308594 Z M 59.128906 263.214844 C 58.171875 263.214844 57.28125 262.738281 56.800781 261.847656 L 56.664062 261.574219 C 55.910156 260.273438 56.390625 258.628906 57.691406 257.878906 C 58.992188 257.125 60.632812 257.605469 61.386719 258.90625 L 61.523438 259.179688 C 62.277344 260.480469 61.796875 262.121094 60.496094 262.875 C 60.085938 263.078125 59.609375 263.214844 59.128906 263.214844 Z M 319.199219 257.261719 C 318.789062 257.261719 318.378906 257.195312 317.96875 256.988281 C 316.667969 256.304688 316.121094 254.660156 316.804688 253.359375 L 316.941406 253.085938 C 317.625 251.785156 319.269531 251.238281 320.570312 251.921875 C 321.871094 252.609375 322.417969 254.25 321.730469 255.550781 L 321.59375 255.824219 C 321.117188 256.714844 320.160156 257.261719 319.199219 257.261719 Z M 52.898438 250.898438 C 51.875 250.898438 50.914062 250.28125 50.4375 249.324219 L 50.300781 249.050781 C 49.683594 247.679688 50.300781 246.105469 51.667969 245.492188 C 53.039062 244.875 54.613281 245.492188 55.226562 246.859375 L 55.363281 247.132812 C 55.980469 248.5 55.363281 250.074219 53.996094 250.691406 C 53.652344 250.828125 53.242188 250.898438 52.898438 250.898438 Z M 324.878906 244.667969 C 324.539062 244.667969 324.195312 244.601562 323.921875 244.464844 C 322.554688 243.917969 321.871094 242.34375 322.417969 240.972656 L 322.554688 240.632812 C 323.101562 239.261719 324.675781 238.578125 326.042969 239.125 C 327.414062 239.671875 328.097656 241.246094 327.550781 242.617188 L 327.414062 242.957031 C 326.933594 243.984375 325.976562 244.667969 324.878906 244.667969 Z M 47.765625 238.03125 C 46.671875 238.03125 45.578125 237.347656 45.234375 236.183594 L 45.097656 235.839844 C 44.621094 234.402344 45.371094 232.898438 46.808594 232.417969 C 48.246094 231.9375 49.753906 232.691406 50.230469 234.128906 L 50.367188 234.472656 C 50.847656 235.910156 50.09375 237.414062 48.726562 237.894531 C 48.382812 237.960938 48.109375 238.03125 47.765625 238.03125 Z M 329.398438 231.597656 C 329.125 231.597656 328.917969 231.527344 328.644531 231.460938 C 327.207031 231.050781 326.386719 229.542969 326.796875 228.105469 L 326.867188 227.765625 C 327.277344 226.328125 328.78125 225.507812 330.21875 225.917969 C 331.65625 226.328125 332.476562 227.832031 332.066406 229.269531 L 332 229.613281 C 331.585938 230.777344 330.5625 231.597656 329.398438 231.597656 Z M 43.933594 224.683594 C 42.703125 224.683594 41.609375 223.863281 41.335938 222.632812 L 41.265625 222.289062 C 40.921875 220.851562 41.8125 219.414062 43.25 219.074219 C 44.6875 218.730469 46.125 219.621094 46.46875 221.058594 L 46.535156 221.398438 C 46.878906 222.835938 45.988281 224.273438 44.550781 224.617188 C 44.34375 224.683594 44.140625 224.683594 43.933594 224.683594 Z M 332.613281 218.113281 C 332.476562 218.113281 332.273438 218.113281 332.066406 218.046875 C 330.628906 217.773438 329.671875 216.335938 329.945312 214.898438 L 330.011719 214.554688 C 330.289062 213.117188 331.726562 212.160156 333.160156 212.433594 C 334.597656 212.707031 335.558594 214.144531 335.285156 215.582031 L 335.214844 215.925781 C 335.007812 217.226562 333.847656 218.113281 332.613281 218.113281 Z M 41.335938 211.132812 C 40.035156 211.132812 38.871094 210.175781 38.664062 208.804688 L 38.597656 208.464844 C 38.390625 206.957031 39.417969 205.660156 40.921875 205.453125 C 42.429688 205.246094 43.730469 206.273438 43.933594 207.78125 L 44.003906 208.121094 C 44.207031 209.628906 43.183594 210.929688 41.746094 211.203125 C 41.609375 211.132812 41.472656 211.132812 41.335938 211.132812 Z M 334.53125 204.425781 C 334.460938 204.425781 334.324219 204.425781 334.257812 204.425781 C 332.75 204.289062 331.65625 202.988281 331.863281 201.484375 L 331.863281 201.140625 C 332 199.636719 333.296875 198.539062 334.804688 198.746094 C 336.308594 198.882812 337.40625 200.183594 337.199219 201.6875 L 337.199219 202.03125 C 337.132812 203.398438 335.898438 204.425781 334.53125 204.425781 Z M 40.101562 197.378906 C 38.664062 197.378906 37.5 196.28125 37.433594 194.777344 L 37.433594 194.433594 C 37.363281 192.929688 38.527344 191.695312 39.964844 191.628906 C 41.472656 191.558594 42.703125 192.722656 42.769531 194.160156 L 42.769531 194.503906 C 42.839844 196.007812 41.675781 197.238281 40.238281 197.308594 C 40.171875 197.378906 40.101562 197.378906 40.101562 197.378906 Z M 335.214844 190.257812 C 333.710938 190.257812 332.410156 189.371094 332.410156 187.863281 L 332.410156 187.589844 C 332.410156 187.589844 332.410156 187.523438 332.410156 187.523438 L 332.410156 187.179688 C 332.410156 185.675781 333.640625 184.511719 335.148438 184.511719 C 336.652344 184.511719 337.882812 185.742188 337.882812 187.179688 L 337.882812 187.453125 C 337.882812 187.453125 337.882812 187.523438 337.882812 187.523438 L 337.882812 187.863281 C 337.882812 189.371094 336.722656 190.257812 335.214844 190.257812 Z M 40.035156 183.484375 C 39.964844 183.484375 39.964844 183.484375 39.898438 183.484375 C 38.390625 183.414062 37.226562 182.183594 37.296875 180.675781 L 37.296875 180.335938 C 37.363281 178.828125 38.664062 177.734375 40.101562 177.804688 C 41.609375 177.871094 42.769531 179.105469 42.632812 180.609375 L 42.632812 180.953125 C 42.703125 182.390625 41.472656 183.484375 40.035156 183.484375 Z M 334.597656 176.433594 C 333.230469 176.433594 332.066406 175.40625 331.929688 173.96875 L 331.929688 173.628906 C 331.792969 172.121094 332.886719 170.824219 334.324219 170.683594 C 335.832031 170.546875 337.132812 171.644531 337.269531 173.082031 L 337.269531 173.421875 C 337.40625 174.929688 336.308594 176.230469 334.804688 176.367188 C 334.734375 176.433594 334.667969 176.433594 334.597656 176.433594 Z M 41.335938 169.726562 C 41.195312 169.726562 41.058594 169.726562 40.992188 169.726562 C 39.484375 169.523438 38.460938 168.152344 38.664062 166.714844 L 38.734375 166.375 C 38.9375 164.867188 40.308594 163.839844 41.8125 164.117188 C 43.320312 164.320312 44.34375 165.6875 44.070312 167.195312 L 44.003906 167.539062 C 43.796875 168.769531 42.632812 169.726562 41.335938 169.726562 Z M 332.683594 162.746094 C 331.382812 162.746094 330.289062 161.855469 330.011719 160.554688 L 329.945312 160.214844 C 329.671875 158.777344 330.628906 157.339844 332.066406 157.066406 C 333.503906 156.792969 334.941406 157.75 335.214844 159.1875 L 335.285156 159.53125 C 335.558594 160.96875 334.597656 162.402344 333.160156 162.679688 C 332.957031 162.746094 332.820312 162.746094 332.683594 162.746094 Z M 43.867188 156.109375 C 43.660156 156.109375 43.457031 156.109375 43.25 156.039062 C 41.8125 155.695312 40.921875 154.261719 41.265625 152.824219 L 41.335938 152.480469 C 41.675781 151.042969 43.113281 150.152344 44.550781 150.496094 C 45.988281 150.839844 46.878906 152.273438 46.535156 153.710938 L 46.46875 154.054688 C 46.191406 155.285156 45.097656 156.109375 43.867188 156.109375 Z M 329.464844 149.265625 C 328.300781 149.265625 327.207031 148.511719 326.867188 147.277344 L 326.796875 146.9375 C 326.386719 145.5 327.207031 143.992188 328.644531 143.582031 C 330.082031 143.171875 331.585938 143.992188 332 145.429688 L 332.066406 145.773438 C 332.476562 147.210938 331.65625 148.714844 330.21875 149.125 C 329.945312 149.265625 329.671875 149.265625 329.464844 149.265625 Z M 47.699219 142.832031 C 47.425781 142.832031 47.152344 142.761719 46.808594 142.695312 C 45.371094 142.214844 44.621094 140.707031 45.097656 139.273438 L 45.234375 138.996094 C 45.714844 137.5625 47.289062 136.808594 48.65625 137.285156 C 50.09375 137.765625 50.847656 139.273438 50.367188 140.707031 L 50.230469 141.050781 C 49.890625 142.144531 48.792969 142.832031 47.699219 142.832031 Z M 325.015625 136.191406 C 323.921875 136.191406 322.894531 135.507812 322.484375 134.480469 L 322.347656 134.207031 C 321.800781 132.839844 322.484375 131.265625 323.855469 130.714844 C 325.222656 130.167969 326.796875 130.851562 327.34375 132.222656 L 327.480469 132.5625 C 328.027344 133.933594 327.34375 135.507812 325.976562 136.054688 C 325.632812 136.125 325.359375 136.191406 325.015625 136.191406 Z M 52.761719 129.964844 C 52.421875 129.964844 52.011719 129.894531 51.667969 129.757812 C 50.300781 129.140625 49.683594 127.566406 50.300781 126.199219 L 50.4375 125.855469 C 51.050781 124.488281 52.625 123.871094 53.996094 124.488281 C 55.363281 125.105469 55.980469 126.679688 55.363281 128.046875 L 55.226562 128.320312 C 54.75 129.347656 53.789062 129.964844 52.761719 129.964844 Z M 319.335938 123.53125 C 318.378906 123.53125 317.421875 122.984375 316.941406 122.023438 L 316.804688 121.75 C 316.121094 120.449219 316.667969 118.808594 317.96875 118.125 C 319.269531 117.4375 320.910156 117.988281 321.59375 119.285156 L 321.730469 119.5625 C 322.417969 120.859375 321.871094 122.503906 320.570312 123.1875 C 320.160156 123.460938 319.746094 123.53125 319.335938 123.53125 Z M 58.992188 117.574219 C 58.511719 117.574219 58.101562 117.4375 57.691406 117.234375 C 56.390625 116.480469 55.910156 114.839844 56.664062 113.539062 L 56.800781 113.265625 C 57.554688 111.964844 59.195312 111.554688 60.496094 112.238281 C 61.796875 112.992188 62.207031 114.632812 61.523438 115.933594 L 61.386719 116.207031 C 60.839844 117.097656 59.949219 117.574219 58.992188 117.574219 Z M 312.492188 111.484375 C 311.601562 111.484375 310.714844 111.007812 310.234375 110.253906 L 310.097656 109.980469 C 309.277344 108.746094 309.6875 107.035156 310.917969 106.285156 C 312.152344 105.460938 313.863281 105.871094 314.613281 107.105469 L 314.820312 107.378906 C 315.640625 108.609375 315.230469 110.320312 314 111.074219 C 313.453125 111.417969 312.972656 111.484375 312.492188 111.484375 Z M 66.382812 105.871094 C 65.835938 105.871094 65.289062 105.734375 64.878906 105.394531 C 63.644531 104.574219 63.371094 102.863281 64.191406 101.628906 L 64.398438 101.355469 C 65.21875 100.125 66.929688 99.851562 68.164062 100.671875 C 69.394531 101.5625 69.667969 103.203125 68.847656 104.4375 L 68.640625 104.710938 C 68.09375 105.460938 67.203125 105.871094 66.382812 105.871094 Z M 304.554688 100.191406 C 303.734375 100.191406 302.910156 99.851562 302.433594 99.164062 L 302.226562 98.890625 C 301.335938 97.730469 301.542969 96.015625 302.707031 95.128906 C 303.871094 94.238281 305.582031 94.445312 306.46875 95.605469 L 306.675781 95.878906 C 307.566406 97.042969 307.359375 98.753906 306.195312 99.644531 C 305.71875 99.988281 305.171875 100.191406 304.554688 100.191406 Z M 74.800781 94.921875 C 74.183594 94.921875 73.570312 94.71875 73.089844 94.304688 C 71.925781 93.347656 71.789062 91.636719 72.746094 90.542969 L 72.953125 90.269531 C 73.910156 89.105469 75.621094 89.035156 76.785156 89.996094 C 77.949219 90.953125 78.019531 92.664062 77.058594 93.828125 L 76.855469 94.101562 C 76.375 94.582031 75.554688 94.921875 74.800781 94.921875 Z M 295.589844 89.652344 C 294.835938 89.652344 294.152344 89.378906 293.605469 88.761719 L 293.398438 88.558594 C 292.371094 87.460938 292.441406 85.75 293.535156 84.726562 C 294.628906 83.699219 296.339844 83.765625 297.367188 84.863281 L 297.640625 85.136719 C 298.667969 86.230469 298.601562 87.941406 297.503906 88.96875 C 296.957031 89.378906 296.273438 89.652344 295.589844 89.652344 Z M 84.246094 84.792969 C 83.5625 84.792969 82.878906 84.519531 82.328125 83.972656 C 81.304688 82.878906 81.304688 81.234375 82.398438 80.140625 L 82.671875 79.867188 C 83.765625 78.839844 85.476562 78.839844 86.503906 79.933594 C 87.53125 81.027344 87.53125 82.738281 86.4375 83.765625 L 86.230469 83.972656 C 85.613281 84.519531 84.929688 84.792969 84.246094 84.792969 Z M 285.734375 79.933594 C 285.117188 79.933594 284.433594 79.730469 283.953125 79.25 L 283.75 79.042969 C 282.652344 78.085938 282.515625 76.375 283.542969 75.210938 C 284.5 74.117188 286.210938 73.980469 287.375 75.007812 L 287.648438 75.210938 C 288.746094 76.238281 288.882812 77.882812 287.855469 79.042969 C 287.171875 79.660156 286.484375 79.933594 285.734375 79.933594 Z M 94.582031 75.554688 C 93.828125 75.554688 93.007812 75.210938 92.457031 74.527344 C 91.5 73.363281 91.707031 71.652344 92.871094 70.761719 L 93.144531 70.558594 C 94.304688 69.601562 96.015625 69.804688 96.90625 70.96875 C 97.867188 72.132812 97.660156 73.84375 96.496094 74.734375 L 96.222656 74.9375 C 95.742188 75.347656 95.195312 75.554688 94.582031 75.554688 Z M 274.988281 71.242188 C 274.441406 71.242188 273.894531 71.105469 273.414062 70.695312 L 273.140625 70.488281 C 271.90625 69.601562 271.703125 67.957031 272.523438 66.726562 C 273.414062 65.492188 275.125 65.289062 276.289062 66.109375 L 276.5625 66.316406 C 277.792969 67.203125 278 68.914062 277.109375 70.078125 C 276.628906 70.832031 275.808594 71.242188 274.988281 71.242188 Z M 105.734375 67.339844 C 104.847656 67.339844 104.023438 66.929688 103.476562 66.109375 C 102.65625 64.878906 103 63.167969 104.230469 62.34375 L 104.503906 62.140625 C 105.734375 61.320312 107.445312 61.660156 108.269531 62.894531 C 109.089844 64.125 108.746094 65.835938 107.515625 66.65625 L 107.242188 66.863281 C 106.761719 67.203125 106.214844 67.339844 105.734375 67.339844 Z M 263.421875 63.578125 C 262.941406 63.578125 262.464844 63.441406 262.054688 63.167969 L 261.777344 62.960938 C 260.480469 62.207031 260.066406 60.566406 260.820312 59.265625 C 261.574219 57.964844 263.214844 57.554688 264.515625 58.308594 L 264.789062 58.511719 C 266.089844 59.265625 266.5 60.90625 265.75 62.207031 C 265.269531 63.097656 264.378906 63.578125 263.421875 63.578125 Z M 117.574219 60.222656 C 116.617188 60.222656 115.660156 59.675781 115.179688 58.785156 C 114.496094 57.484375 114.976562 55.84375 116.277344 55.160156 L 116.550781 55.023438 C 117.851562 54.335938 119.492188 54.816406 120.175781 56.117188 C 120.859375 57.417969 120.382812 59.058594 119.082031 59.746094 L 118.808594 59.882812 C 118.464844 60.085938 117.988281 60.222656 117.574219 60.222656 Z M 251.238281 57.007812 C 250.828125 57.007812 250.488281 56.9375 250.074219 56.734375 L 249.800781 56.597656 C 248.433594 55.980469 247.886719 54.335938 248.5 52.96875 C 249.117188 51.601562 250.761719 51.050781 252.128906 51.667969 L 252.402344 51.804688 C 253.773438 52.421875 254.320312 54.0625 253.703125 55.433594 C 253.222656 56.460938 252.265625 57.007812 251.238281 57.007812 Z M 130.03125 54.199219 C 129.003906 54.199219 127.980469 53.585938 127.566406 52.558594 C 127.019531 51.1875 127.636719 49.617188 129.003906 49 L 129.347656 48.863281 C 130.714844 48.316406 132.289062 48.929688 132.90625 50.300781 C 133.453125 51.667969 132.839844 53.242188 131.46875 53.859375 L 131.195312 53.996094 C 130.714844 54.132812 130.375 54.199219 130.03125 54.199219 Z M 238.507812 51.601562 C 238.234375 51.601562 237.894531 51.53125 237.621094 51.464844 L 237.277344 51.328125 C 235.910156 50.847656 235.15625 49.273438 235.703125 47.835938 C 236.183594 46.46875 237.757812 45.714844 239.195312 46.261719 L 239.535156 46.398438 C 240.90625 46.878906 241.65625 48.453125 241.179688 49.890625 C 240.632812 50.914062 239.605469 51.601562 238.507812 51.601562 Z M 143.035156 49.410156 C 141.871094 49.410156 140.84375 48.65625 140.433594 47.492188 C 139.957031 46.054688 140.777344 44.550781 142.214844 44.140625 L 142.558594 44.070312 C 143.992188 43.59375 145.5 44.414062 145.910156 45.851562 C 146.390625 47.289062 145.566406 48.792969 144.128906 49.203125 L 143.789062 49.273438 C 143.582031 49.410156 143.308594 49.410156 143.035156 49.410156 Z M 225.300781 47.492188 C 225.09375 47.492188 224.820312 47.492188 224.617188 47.425781 L 224.273438 47.355469 C 222.835938 47.015625 221.945312 45.507812 222.359375 44.070312 C 222.699219 42.632812 224.207031 41.746094 225.644531 42.15625 L 225.984375 42.222656 C 227.421875 42.632812 228.3125 44.070312 227.902344 45.507812 C 227.558594 46.671875 226.464844 47.492188 225.300781 47.492188 Z M 156.382812 45.917969 C 155.148438 45.917969 154.054688 45.03125 153.78125 43.796875 C 153.4375 42.359375 154.398438 40.921875 155.835938 40.582031 L 156.109375 40.511719 C 157.546875 40.171875 159.050781 41.128906 159.324219 42.566406 C 159.667969 44.003906 158.707031 45.441406 157.269531 45.78125 L 156.929688 45.851562 C 156.792969 45.851562 156.585938 45.917969 156.382812 45.917969 Z M 211.75 44.550781 C 211.613281 44.550781 211.476562 44.550781 211.339844 44.480469 L 210.996094 44.414062 C 209.558594 44.207031 208.53125 42.769531 208.738281 41.335938 C 209.011719 39.898438 210.378906 38.871094 211.816406 39.074219 L 212.160156 39.144531 C 213.597656 39.417969 214.625 40.785156 214.351562 42.222656 C 214.214844 43.660156 213.050781 44.550781 211.75 44.550781 Z M 170.070312 43.660156 C 168.699219 43.660156 167.539062 42.632812 167.398438 41.265625 C 167.195312 39.761719 168.289062 38.460938 169.796875 38.253906 L 170.136719 38.1875 C 171.644531 37.980469 172.945312 39.074219 173.148438 40.582031 C 173.355469 42.085938 172.257812 43.386719 170.753906 43.59375 L 170.410156 43.660156 C 170.273438 43.59375 170.136719 43.660156 170.070312 43.660156 Z M 197.992188 42.976562 C 197.925781 42.976562 197.855469 42.976562 197.789062 42.976562 L 197.445312 42.976562 C 195.941406 42.90625 194.84375 41.609375 194.914062 40.101562 C 194.980469 38.597656 196.28125 37.5 197.789062 37.570312 L 198.128906 37.570312 C 199.636719 37.636719 200.730469 38.9375 200.664062 40.445312 C 200.59375 41.882812 199.429688 42.976562 197.992188 42.976562 Z M 183.824219 42.703125 C 182.390625 42.703125 181.15625 41.539062 181.15625 40.035156 C 181.089844 38.527344 182.320312 37.296875 183.757812 37.226562 L 184.101562 37.226562 C 185.535156 37.160156 186.835938 38.390625 186.835938 39.828125 C 186.90625 41.335938 185.675781 42.566406 184.238281 42.632812 L 183.824219 42.703125 C 183.894531 42.703125 183.894531 42.703125 183.824219 42.703125 Z M 183.824219 42.703125 " fill-opacity="1" fill-rule="nonzero"/><g clip-path="url(#ab17d715b2)"><g clip-path="url(#ea2e8d62ca)"><g clip-path="url(#bad0c986d9)"><path fill="#ffffff" d="M 242.1875 65.707031 L 224.976562 130.539062 L 284.789062 192.351562 L 299.394531 230.363281 L 202.066406 129.785156 Z M 242.1875 65.707031 " fill-opacity="1" fill-rule="evenodd"/></g></g></g><g clip-path="url(#e249441e53)"><g clip-path="url(#85054567c9)"><g clip-path="url(#67dd045562)"><path fill="#ffffff" d="M 133.851562 170.542969 L 199.210938 155.472656 L 259.027344 217.28125 L 296.542969 233.125 L 199.210938 132.546875 Z M 133.851562 170.542969 " fill-opacity="1" fill-rule="evenodd"/></g></g></g><g clip-path="url(#7b771d5525)"><g clip-path="url(#73c50e0fc7)"><g clip-path="url(#a76ccc0284)"><path fill="#ffffff" d="M 253.292969 77.1875 L 236.082031 142.019531 L 295.898438 203.828125 L 310.5 241.839844 L 213.171875 141.261719 Z M 253.292969 77.1875 " fill-opacity="1" fill-rule="evenodd"/></g></g></g><g clip-path="url(#430febb907)"><g clip-path="url(#e5fbd444eb)"><g clip-path="url(#8ca0a5c9e9)"><path fill="#ffffff" d="M 134.738281 309.285156 L 150.835938 244.167969 L 89.96875 183.394531 L 74.71875 145.636719 L 173.757812 244.53125 Z M 134.738281 309.285156 " fill-opacity="1" fill-rule="evenodd"/></g></g></g><g clip-path="url(#b90f8d402e)"><g clip-path="url(#81fdc76e71)"><g clip-path="url(#5df216c554)"><path fill="#ffffff" d="M 241.261719 202.609375 L 176.167969 218.796875 L 115.304688 158.023438 L 77.523438 142.828125 L 176.5625 241.722656 Z M 241.261719 202.609375 " fill-opacity="1" fill-rule="evenodd"/></g></g></g><g clip-path="url(#78fe08c10e)"><g clip-path="url(#cb611e8325)"><g clip-path="url(#33cc42d98d)"><path fill="#ffffff" d="M 123.429688 298.003906 L 139.527344 232.886719 L 78.664062 172.109375 L 63.410156 134.355469 L 162.449219 233.246094 Z M 123.429688 298.003906 " fill-opacity="1" fill-rule="evenodd"/></g></g></g></svg>